<svg width="762" height="187" viewBox="0 0 762 187" fill="none" xmlns="http://www.w3.org/2000/svg">
<g clip-path="url(#clip0)">
<path d="M134.031 114.578C126.312 112.359 120.688 109.641 117.156 106.422C113.656 103.172 111.906 99.1719 111.906 94.4219C111.906 89.0469 114.047 84.6094 118.328 81.1094C122.641 77.5781 128.234 75.8125 135.109 75.8125C139.797 75.8125 143.969 76.7188 147.625 78.5312C151.312 80.3438 154.156 82.8438 156.156 86.0312C158.188 89.2188 159.203 92.7031 159.203 96.4844H150.156C150.156 92.3594 148.844 89.125 146.219 86.7812C143.594 84.4062 139.891 83.2188 135.109 83.2188C130.672 83.2188 127.203 84.2031 124.703 86.1719C122.234 88.1094 121 90.8125 121 94.2812C121 97.0625 122.172 99.4219 124.516 101.359C126.891 103.266 130.906 105.016 136.562 106.609C142.25 108.203 146.688 109.969 149.875 111.906C153.094 113.812 155.469 116.047 157 118.609C158.562 121.172 159.344 124.188 159.344 127.656C159.344 133.188 157.188 137.625 152.875 140.969C148.562 144.281 142.797 145.938 135.578 145.938C130.891 145.938 126.516 145.047 122.453 143.266C118.391 141.453 115.25 138.984 113.031 135.859C110.844 132.734 109.75 129.188 109.75 125.219H118.797C118.797 129.344 120.312 132.609 123.344 135.016C126.406 137.391 130.484 138.578 135.578 138.578C140.328 138.578 143.969 137.609 146.5 135.672C149.031 133.734 150.297 131.094 150.297 127.75C150.297 124.406 149.125 121.828 146.781 120.016C144.438 118.172 140.188 116.359 134.031 114.578ZM181.328 82V94.2812H190.797V100.984H181.328V132.438C181.328 134.469 181.75 136 182.594 137.031C183.438 138.031 184.875 138.531 186.906 138.531C187.906 138.531 189.281 138.344 191.031 137.969V145C188.75 145.625 186.531 145.938 184.375 145.938C180.5 145.938 177.578 144.766 175.609 142.422C173.641 140.078 172.656 136.75 172.656 132.438V100.984H163.422V94.2812H172.656V82H181.328ZM232.281 145C231.781 144 231.375 142.219 231.062 139.656C227.031 143.844 222.219 145.938 216.625 145.938C211.625 145.938 207.516 144.531 204.297 141.719C201.109 138.875 199.516 135.281 199.516 130.938C199.516 125.656 201.516 121.562 205.516 118.656C209.547 115.719 215.203 114.25 222.484 114.25H230.922V110.266C230.922 107.234 230.016 104.828 228.203 103.047C226.391 101.234 223.719 100.328 220.188 100.328C217.094 100.328 214.5 101.109 212.406 102.672C210.312 104.234 209.266 106.125 209.266 108.344H200.547C200.547 105.812 201.438 103.375 203.219 101.031C205.031 98.6562 207.469 96.7812 210.531 95.4062C213.625 94.0312 217.016 93.3438 220.703 93.3438C226.547 93.3438 231.125 94.8125 234.438 97.75C237.75 100.656 239.469 104.672 239.594 109.797V133.141C239.594 137.797 240.188 141.5 241.375 144.25V145H232.281ZM217.891 138.391C220.609 138.391 223.188 137.688 225.625 136.281C228.062 134.875 229.828 133.047 230.922 130.797V120.391H224.125C213.5 120.391 208.188 123.5 208.188 129.719C208.188 132.438 209.094 134.562 210.906 136.094C212.719 137.625 215.047 138.391 217.891 138.391ZM273.531 138.859C276.625 138.859 279.328 137.922 281.641 136.047C283.953 134.172 285.234 131.828 285.484 129.016H293.688C293.531 131.922 292.531 134.688 290.688 137.312C288.844 139.938 286.375 142.031 283.281 143.594C280.219 145.156 276.969 145.938 273.531 145.938C266.625 145.938 261.125 143.641 257.031 139.047C252.969 134.422 250.938 128.109 250.938 120.109V118.656C250.938 113.719 251.844 109.328 253.656 105.484C255.469 101.641 258.062 98.6562 261.438 96.5312C264.844 94.4062 268.859 93.3438 273.484 93.3438C279.172 93.3438 283.891 95.0469 287.641 98.4531C291.422 101.859 293.438 106.281 293.688 111.719H285.484C285.234 108.438 283.984 105.75 281.734 103.656C279.516 101.531 276.766 100.469 273.484 100.469C269.078 100.469 265.656 102.062 263.219 105.25C260.812 108.406 259.609 112.984 259.609 118.984V120.625C259.609 126.469 260.812 130.969 263.219 134.125C265.625 137.281 269.062 138.859 273.531 138.859ZM317.594 121.516L312.156 127.188V145H303.484V73H312.156V116.547L316.797 110.969L332.594 94.2812H343.141L323.406 115.469L345.438 145H335.266L317.594 121.516ZM429.766 113.078C429.766 119.766 428.641 125.609 426.391 130.609C424.141 135.578 420.953 139.375 416.828 142C412.703 144.625 407.891 145.938 402.391 145.938C397.016 145.938 392.25 144.625 388.094 142C383.938 139.344 380.703 135.578 378.391 130.703C376.109 125.797 374.938 120.125 374.875 113.688V108.766C374.875 102.203 376.016 96.4062 378.297 91.375C380.578 86.3438 383.797 82.5 387.953 79.8438C392.141 77.1562 396.922 75.8125 402.297 75.8125C407.766 75.8125 412.578 77.1406 416.734 79.7969C420.922 82.4219 424.141 86.25 426.391 91.2812C428.641 96.2812 429.766 102.109 429.766 108.766V113.078ZM420.812 108.672C420.812 100.578 419.188 94.375 415.938 90.0625C412.688 85.7188 408.141 83.5469 402.297 83.5469C396.609 83.5469 392.125 85.7188 388.844 90.0625C385.594 94.375 383.922 100.375 383.828 108.062V113.078C383.828 120.922 385.469 127.094 388.75 131.594C392.062 136.062 396.609 138.297 402.391 138.297C408.203 138.297 412.703 136.188 415.891 131.969C419.078 127.719 420.719 121.641 420.812 113.734V108.672ZM458.641 133.234L471.203 94.2812H480.062L461.875 145H455.266L436.891 94.2812H445.75L458.641 133.234ZM508.797 145.938C501.922 145.938 496.328 143.688 492.016 139.188C487.703 134.656 485.547 128.609 485.547 121.047V119.453C485.547 114.422 486.5 109.938 488.406 106C490.344 102.031 493.031 98.9375 496.469 96.7188C499.938 94.4688 503.688 93.3438 507.719 93.3438C514.312 93.3438 519.438 95.5156 523.094 99.8594C526.75 104.203 528.578 110.422 528.578 118.516V122.125H494.219C494.344 127.125 495.797 131.172 498.578 134.266C501.391 137.328 504.953 138.859 509.266 138.859C512.328 138.859 514.922 138.234 517.047 136.984C519.172 135.734 521.031 134.078 522.625 132.016L527.922 136.141C523.672 142.672 517.297 145.938 508.797 145.938ZM507.719 100.469C504.219 100.469 501.281 101.75 498.906 104.312C496.531 106.844 495.062 110.406 494.5 115H519.906V114.344C519.656 109.938 518.469 106.531 516.344 104.125C514.219 101.688 511.344 100.469 507.719 100.469ZM563.172 102.062C561.859 101.844 560.438 101.734 558.906 101.734C553.219 101.734 549.359 104.156 547.328 109V145H538.656V94.2812H547.094L547.234 100.141C550.078 95.6094 554.109 93.3438 559.328 93.3438C561.016 93.3438 562.297 93.5625 563.172 94V102.062ZM602.875 80.3594C599 79.7344 595.875 79.4219 593.5 79.4219C587.25 79.4219 584.125 82.7031 584.125 89.2656V94.2812H594.953V100.984H584.125V145H575.453V100.984H567.438V94.2812H575.453V88.75C575.484 83.3438 577 79.2031 580 76.3281C583 73.4531 587.266 72.0156 592.797 72.0156C595.953 72.0156 602.203 72.9688 611.547 74.875V145H602.875V80.3594ZM623.453 119.172C623.453 114.203 624.422 109.734 626.359 105.766C628.328 101.797 631.047 98.7344 634.516 96.5781C638.016 94.4219 642 93.3438 646.469 93.3438C653.375 93.3438 658.953 95.7344 663.203 100.516C667.484 105.297 669.625 111.656 669.625 119.594V120.203C669.625 125.141 668.672 129.578 666.766 133.516C664.891 137.422 662.188 140.469 658.656 142.656C655.156 144.844 651.125 145.938 646.562 145.938C639.688 145.938 634.109 143.547 629.828 138.766C625.578 133.984 623.453 127.656 623.453 119.781V119.172ZM632.172 120.203C632.172 125.828 633.469 130.344 636.062 133.75C638.688 137.156 642.188 138.859 646.562 138.859C650.969 138.859 654.469 137.141 657.062 133.703C659.656 130.234 660.953 125.391 660.953 119.172C660.953 113.609 659.625 109.109 656.969 105.672C654.344 102.203 650.844 100.469 646.469 100.469C642.188 100.469 638.734 102.172 636.109 105.578C633.484 108.984 632.172 113.859 632.172 120.203ZM725.406 133.047L735.156 94.2812H743.828L729.062 145H722.031L709.703 106.562L697.703 145H690.672L675.953 94.2812H684.578L694.562 132.25L706.375 94.2812H713.359L725.406 133.047Z" fill="black"/>
<line x1="30.5" y1="110" x2="30.5" y2="150" stroke="black" stroke-width="5"/>
<line x1="91.5" y1="110" x2="91.5" y2="150" stroke="black" stroke-width="5"/>
<line x1="28.0016" y1="147.5" x2="94.0016" y2="147.543" stroke="black" stroke-width="5"/>
<line x1="33.0446" y1="95.5004" x2="89.0446" y2="96.5004" stroke="#FFAA05" stroke-width="5"/>
<line x1="71.3128" y1="10.8724" x2="118.313" y2="39.8724" stroke="#FFAA05" stroke-width="5"/>
<line x1="33.3967" y1="74.5317" x2="89.3967" y2="83.5317" stroke="#FFAA05" stroke-width="5"/>
<line x1="62.1765" y1="29.7941" x2="107.176" y2="53.7941" stroke="#FFAA05" stroke-width="5"/>
<line x1="47.002" y1="46.7096" x2="95.002" y2="67.7096" stroke="#FFAA05" stroke-width="5"/>
</g>
<defs>
<clipPath id="clip0">
<rect width="762" height="187" fill="white"/>
</clipPath>
</defs>
</svg>
